<?xml version="1.0" encoding="UTF-8"?>
<svg width="320px" height="276px" viewBox="0 0 320 276" version="1.1" xmlns="http://www.w3.org/2000/svg" xmlns:xlink="http://www.w3.org/1999/xlink">
    <!-- Generator: Sketch 64 (93537) - https://sketch.com -->
    <title>secondary-award</title>
    <desc>Created with Sketch.</desc>

    <style type="text/css" >
      <![CDATA[
        #ground {
          transform-box: fill-box;
          transform-origin: 75% 100%;
        }

        #flower-front,
        #flower-back {
          transform-box: fill-box;
          transform-origin: 0 100%;
        }
      ]]>
    </style>

    <g id="secondary-award" transform="translate(1.000000, 1.000000)" opacity="0">
        <g id="clouds">
            <g id="cloud-left" stroke="#FFFFFF" stroke-linecap="round" stroke-width="2" fill="transparent">
                <line x1="50.31" y1="22.67" x2="90.08" y2="22.67" id="Path"></line>
                <path d="M70.09,12.4 L42.73,12.4 C42.73,5.5516691 37.1783309,-1.0658141e-14 30.33,-1.0658141e-14 C23.4816691,-1.0658141e-14 17.93,5.5516691 17.93,12.4 L0,12.4" id="Path"></path>
                <line x1="78.35" y1="12.4" x2="100.55" y2="12.4" id="Path"></line>
            </g>
            <g id="cloud-right" transform="translate(69.850000, 28.992597)">
                <line x1="187.15" y1="61.2374028" x2="226.93" y2="61.2374028" id="Path" stroke="#FFFFFF" stroke-width="2" stroke-linecap="round"></line>
                <line x1="215.2" y1="50.9574028" x2="237.4" y2="50.9574028" id="Path" stroke="#FFFFFF" stroke-width="2" stroke-linecap="round"></line>
                <path d="M150.79,34.9574028 L131.34,34.9574028 C131.08783,18.2600359 119.229282,3.99722849 102.85848,0.701400766 C86.4876772,-2.59442696 70.033788,5.96842066 63.34,21.2674028 C59.3974866,19.078926 54.9591587,17.9392157 50.45,17.9574028 C39.4768391,17.9941227 29.6416946,24.7359557 25.65,34.9574028 L10.5,34.9574028 C4.70101013,34.9574028 0,39.658413 0,45.4574028 C0,51.2563927 4.70101013,55.9574028 10.5,55.9574028 L150.8,55.9574028 C156.59899,55.9574028 161.3,51.2563927 161.3,45.4574028 C161.3,39.658413 156.59899,34.9574028 150.8,34.9574028" id="Path" fill="#FFFFFF" fill-rule="nonzero"></path>
            </g>
            <animateTransform
              attributeName="transform"
              type="translate"
              values="100 0; 0 0"
              dur="1s"
              additive="sum"
              fill="freeze"
            />
            <animateTransform
              begin="cargoMotion.begin + 2s"
              attributeName="transform"
              type="translate"
              values="0 0; 0 -100"
              dur="0.2s"
              additive="sum"
              fill="freeze"
            />
            <animate
              begin="cargoMotion.begin + 2s"
              attributeType="CSS"
              attributeName="opacity"
              from="1"
              to="0"
              dur="0.2s"
              fill="freeze"
            />
        </g>
        <g id="flower-back" transform="translate(236.000000, 136.000000)" fill="transparent">
            <path d="M11.6326564,16.801485 C12.2973126,16.3102625 13.19566,16.2784645 13.8933841,16.7214639 C14.5911082,17.1644633 14.9444791,17.9910031 14.7826564,18.801485 C13.7826564,25.801485 12.7126564,39.131485 19.6326564,38.201485 C24.5726564,37.541485 2.98265643,6.67148495 38.9526564,0.0414849529 C39.7083436,-0.114737025 40.4864909,0.177719676 40.9522205,0.792995473 C41.4179501,1.40827127 41.4881683,2.23659103 41.1326564,2.92148495 C39.8126564,5.66148495 38.3026564,9.54148495 38.4026564,12.821485 C38.4189972,13.7118228 39.0220109,14.4841125 39.8818127,14.715865 C40.7416146,14.9476175 41.6510718,14.5830019 42.1126564,13.821485 C46.2126564,7.67148495 57.2126564,-4.03851505 78.7026564,3.12148495 C79.4012789,3.34801113 79.9195451,3.93921852 80.0526564,4.66148495 C80.9826564,9.46148495 84.1826564,27.901485 79.7626564,33.381485 C74.6726564,39.691485 64.7626564,37.521485 63.5826564,43.631485 C62.2826564,50.541485 71.0926564,48.451485 77.0026564,43.411485 C77.6112483,42.8731924 78.485011,42.7565755 79.2134726,43.116418 C79.9419343,43.4762605 80.3803078,44.241041 80.3226564,45.051485 C80.0726564,50.501485 78.1426564,59.051485 69.2026564,63.741485 C55.4226564,70.951485 45.7226564,56.741485 44.0126564,59.861485 C41.4226564,64.521485 51.9526564,68.331485 57.7926564,70.041485 C58.5509159,70.2418387 59.1220935,70.8668925 59.253473,71.6400927 C59.3848524,72.4132929 59.0521841,73.191925 58.4026564,73.631485 C47.8826564,81.371485 29.2726564,83.911485 21.4026564,68.221485 C13.1026564,51.631485 8.47265643,55.731485 3.21265643,47.841485 C-2.49734357,39.271485 -1.11734357,25.301485 11.5926564,16.791485 M40.9926564,49.261485 C41.4926564,51.991485 46.1926564,52.771485 49.3426564,52.201485 C52.4926564,51.631485 57.8126564,48.371485 57.3426564,45.641485 C56.8726564,42.911485 50.7226564,41.741485 47.5626564,42.311485 C44.4026564,42.881485 40.5126564,46.531485 41.0126564,49.261485" id="Shape" fill="#E81A5A" fill-rule="nonzero"></path>
            <path d="M11.1626564,137.861485 C11.1626564,137.861485 6.25265643,67.591485 16.7026564,57.141485" id="Path" stroke="#E81A5A" stroke-width="2"></path>
            <animateTransform
              attributeName="transform"
              type="rotate"
              values="-15; -10; -5; -10; -15"
              keyTimes="0; 0.25; .5; .75; 1"
              calcMode="paced"
              dur="2s"
              additive="sum"
              repeatCount="indefinite"
            />
        </g>
        <g id="cargo">
            <g id="case" transform="translate(1.350000, 137.410000)" fill="#9a87d9">
                <path d="M92.32,109.73 C94.2672853,109.724507 95.8445069,108.147285 95.85,106.2 L95.85,101.13 C95.85,99.1804348 94.2695652,97.6 92.32,97.6 C90.3704348,97.6 88.79,99.1804348 88.79,101.13 L88.79,106.2 C88.8009273,108.145021 90.3749791,109.719073 92.32,109.73" id="Path" fill="#A67EE5" fill-rule="nonzero"></path>
                <path d="M92.32,109.73 C94.2672853,109.724507 95.8445069,108.147285 95.85,106.2 L95.85,101.13 C95.85,99.1804348 94.2695652,97.6 92.32,97.6 C90.3704348,97.6 88.79,99.1804348 88.79,101.13 L88.79,106.2 C88.8009273,108.145021 90.3749791,109.719073 92.32,109.73 L92.32,109.73 Z" id="Path" stroke="#FFFFFF" stroke-width="2"></path>
                <path d="M16.78,109.73 C18.7272853,109.724507 20.3045069,108.147285 20.31,106.2 L20.31,101.13 C20.31,99.1804348 18.7295652,97.6 16.78,97.6 C14.8304348,97.6 13.25,99.1804348 13.25,101.13 L13.25,106.2 C13.2554931,108.147285 14.8327147,109.724507 16.78,109.73" id="Path" fill="#A67EE5" fill-rule="nonzero"></path>
                <path d="M16.78,109.73 C18.7272853,109.724507 20.3045069,108.147285 20.31,106.2 L20.31,101.13 C20.31,99.1804348 18.7295652,97.6 16.78,97.6 C14.8304348,97.6 13.25,99.1804348 13.25,101.13 L13.25,106.2 C13.2554931,108.147285 14.8327147,109.724507 16.78,109.73 Z" id="Path" stroke="#FFFFFF" stroke-width="2"></path>
                <path d="M11.35,101.14 L85.85,101.14 C92.1115908,101.123515 97.1835148,96.0515908 97.2,89.79 L97.2,23.71 C97.1835148,17.4484092 92.1115908,12.3764852 85.85,12.36 L11.35,12.36 C5.08840919,12.3764852 0.0164851865,17.4484092 8.52651283e-14,23.71 L8.52651283e-14,89.79 C0.0164851865,96.0515908 5.08840919,101.123515 11.35,101.14" id="Path" fill="#A67EE5" fill-rule="nonzero"></path>
                <rect id="Rectangle" stroke="#FFFFFF" stroke-width="2" x="2.13162821e-14" y="12.37" width="97.2" height="88.78" rx="11.35"></rect>
                <path d="M39.69,0 L72.09,0 C74.3410409,0.00549707191 76.1645029,1.82895911 76.17,4.08 L76.17,20.08 C76.17,20.7372189 75.6372189,21.27 74.98,21.27 L72.28,21.27 C71.6227811,21.27 71.09,20.7372189 71.09,20.08 L71.09,5.71 C71.09,5.00859837 70.5214016,4.44 69.82,4.44 L41.96,4.44 C41.2585984,4.44 40.69,5.00859837 40.69,5.71 L40.69,20.09 C40.69,20.7472189 40.1572189,21.28 39.5,21.28 L36.8,21.28 C36.1427811,21.28 35.61,20.7472189 35.61,20.09 L35.61,4.09 C35.6209821,1.83734249 37.4473224,0.0154675824 39.7,0.01" id="Path" fill="#A67EE5" fill-rule="nonzero"></path>
                <path d="M39.69,0 L72.09,0 C74.3410409,0.00549707191 76.1645029,1.82895911 76.17,4.08 L76.17,20.08 C76.17,20.7372189 75.6372189,21.27 74.98,21.27 L72.28,21.27 C71.6227811,21.27 71.09,20.7372189 71.09,20.08 L71.09,5.71 C71.09,5.00859837 70.5214016,4.44 69.82,4.44 L41.96,4.44 C41.2585984,4.44 40.69,5.00859837 40.69,5.71 L40.69,20.09 C40.69,20.7472189 40.1572189,21.28 39.5,21.28 L36.8,21.28 C36.1427811,21.28 35.61,20.7472189 35.61,20.09 L35.61,4.09 C35.6154676,1.83732236 37.4373425,0.0109820685 39.69,0 Z" id="Path" stroke="#FFFFFF" stroke-width="2"></path>
                <path d="M25.77,101.14 L100.27,101.14 C106.531591,101.123515 111.603515,96.0515908 111.62,89.79 L111.62,23.71 C111.603515,17.4484092 106.531591,12.3764852 100.27,12.36 L25.77,12.36 C19.5123148,12.3819739 14.4464581,17.4522978 14.43,23.71 L14.43,89.79 C14.4519435,96.0493201 19.5206799,101.118057 25.78,101.14" id="Path" fill="#A67EE5" fill-rule="nonzero"></path>
                <path d="M25.77,101.14 L100.27,101.14 C106.531591,101.123515 111.603515,96.0515908 111.62,89.79 L111.62,23.71 C111.603515,17.4484092 106.531591,12.3764852 100.27,12.36 L25.77,12.36 C19.5123148,12.3819739 14.4464581,17.4522978 14.43,23.71 L14.43,89.79 C14.4519082,96.0454363 19.5145855,101.112578 25.77,101.14 Z" id="Path" stroke="#FFFFFF" stroke-width="2"></path>
                <line x1="94.66" y1="33.28" x2="31.4" y2="33.28" id="Path" stroke="#FFFFFF" stroke-width="2" stroke-linecap="round"></line>
                <line x1="94.66" y1="56.76" x2="31.4" y2="56.76" id="Path" stroke="#FFFFFF" stroke-width="2" stroke-linecap="round"></line>
                <line x1="94.66" y1="80.23" x2="31.4" y2="80.23" id="Path" stroke="#FFFFFF" stroke-width="2" stroke-linecap="round"></line>
                <path d="M8.55,34.53 L9.22,34.53 L9.22,78.99 L8.55,78.99 C6.6121205,78.9845413 5.04097184,77.4178561 5.03,75.48 L5.03,38.05 C5.03,37.116438 5.40085608,36.2211122 6.06098413,35.5609841 C6.72111218,34.9008561 7.61643796,34.53 8.55,34.53" id="Path" fill="#A67EE5" fill-rule="nonzero"></path>
                <path d="M8.55,34.53 L9.22,34.53 L9.22,78.99 L8.55,78.99 C6.6121205,78.9845413 5.04097184,77.4178561 5.03,75.48 L5.03,38.05 C5.03,36.1059577 6.60595768,34.53 8.55,34.53 L8.55,34.53 Z" id="Path" stroke="#FFFFFF" stroke-width="2"></path>
            </g>
            <g id="umbrella">
                <line x1="57.25" y1="137.13" x2="1.66" y2="57.3" id="Path" stroke="#FFFFFF" stroke-width="2" stroke-linecap="round" stroke-linejoin="round"></line>
                <line x1="57.25" y1="137.13" x2="38.71" y2="57.3" id="Path" stroke="#FFFFFF" stroke-width="2" stroke-linecap="round" stroke-linejoin="round"></line>
                <line x1="75.77" y1="57.3" x2="57.25" y2="137.13" id="Path" stroke="#FFFFFF" stroke-width="2" stroke-linecap="round" stroke-linejoin="round"></line>
                <line x1="112.83" y1="57.3" x2="57.25" y2="137.13" id="Path" stroke="#FFFFFF" stroke-width="2" stroke-linecap="round" stroke-linejoin="round"></line>
                <path d="M57.24,1.7 C87.9125566,1.72207255 112.768971,26.5874374 112.78,57.26 C112.78,50.5 104.48,45.01 94.25,45.01 C84.02,45.01 75.94,50.36 75.73,57.01 C75.73,57.09 75.73,57.18 75.73,57.27 C75.73,50.51 67.43,45.02 57.2,45.02 C46.97,45.02 38.66,50.51 38.66,57.27 C38.66,57.18 38.66,57.1 38.66,57.01 C38.44,50.37 30.24,45.01 20.14,45.01 C10.04,45.01 1.6199991,50.5 1.6199991,57.26 C1.61734697,42.5158022 7.47328176,28.3747266 17.8990042,17.9490042 C28.3247266,7.52328176 42.4658022,1.66734697 57.21,1.6699991 M57.21,0.01 C25.6210287,0.0651022975 0.0330236767,25.6709979 0,57.26 C0,57.8530609 0.316394126,58.4010719 0.829999943,58.6976023 C1.34360576,58.9941328 1.97639424,58.9941328 2.49000006,58.6976023 C3.00360587,58.4010719 3.32000007,57.8530609 3.32,57.26 C3.32,51.42 10.89,46.67 20.19,46.67 C29.3,46.67 36.87,51.33 37.05,57.05 L37.05,57.26 C37.05,58.1767927 37.7932073,58.9200002 38.71,58.9200002 C39.6267927,58.9200002 40.37,58.1767927 40.37,57.26 C40.37,51.42 47.94,46.67 57.24,46.67 C66.54,46.67 74.11,51.42 74.11,57.26 C74.11,58.1767927 74.8532073,58.9200002 75.77,58.9200002 C76.6867927,58.9200002 77.43,58.1767927 77.43,57.26 L77.43,57.05 C77.61,51.32 85.17,46.66 94.29,46.66 C103.59,46.66 111.16,51.41 111.16,57.25 C111.16,58.1667927 111.903207,58.91 112.82,58.91 C113.736793,58.91 114.48,58.1667927 114.48,57.25 C114.45245,25.6509234 88.849065,0.0385907163 57.25,7.10542736e-15" id="Shape" fill="#FFFFFF" fill-rule="nonzero"></path>
                <path d="M57.24,1.7 C67.16,1.7 75.24,22.6 75.78,57.03 C75.99,50.38 84.19,45.03 94.3,45.03 C104.41,45.03 112.78,50.53 112.78,57.26 C112.78,26.5584908 87.8915092,1.67 57.19,1.67" id="Path" fill="#E81A5A" fill-rule="nonzero"></path>
                <path d="M57.23,1.7 C26.5418224,1.69999801 1.66104289,26.5718244 1.65,57.26 C1.65,50.5 9.95,45.01 20.17,45.01 C30.39,45.01 38.47,50.36 38.69,57.01 C39.21,22.58 47.3,1.69 57.22,1.69" id="Path" fill="#FE6183" fill-rule="nonzero"></path>
                <path d="M57.24,1.7 C47.31,1.7 39.24,22.6 38.7,57.02 C38.7,57.11 38.7,57.19 38.7,57.28 C38.7,50.52 47,45.03 57.23,45.03 C67.46,45.03 75.78,50.53 75.78,57.26 C75.78,57.17 75.78,57.09 75.78,57 C75.27,22.57 67.18,1.67 57.26,1.67" id="Path" fill="#F7396B" fill-rule="nonzero"></path>
            </g>
            <animateMotion
              id="cargoMotion"
              path="M210,46 C191.123017,30.0954376 178.474401,22.3354376 172.054152,22.72 C139.5875,24.6646992 58.5772053,19.8961907 31.5049859,37.9511828 C21.5331177,44.6016167 8.41138468,70.3443262 15.5105849,87.6442742 C26.1462877,113.562279 86.4780658,101.64122 87.0377659,101.479448 C96.6418879,98.708345 142.089996,27.6199991 142.089996,27.6199991"
              dur="3s"
              fill="freeze"
            />
            <animateTransform
              attributeName="transform"
              type="scale"
              values="0.1 0.1; 0.15 0.15; 0.2 0.2; 0.25 0.25; 1 1"
              keyTimes="0; 0.1; 0.4; 0.95; 1"
              dur="3s"
              additive="sum"
              fill="freeze"
              calcMode="paced"
            />
            <animateTransform
                attributeName="transform"
                type="translate"
                from="0, -100"
                to="0, 0"
                dur="3s"
                additive="sum"
              />
            <animateTransform
              attributeName="transform"
              type="rotate"
              values="-30; 0; 20; -10; 0"
              keyTimes="0; 0.1; 0.4; 0.6; 1"
              dur="3s"
              additive="sum"
              fill="freeze"
            />
        </g>
        <g id="flower-front" transform="translate(229.000000, 215.000000)" fill="transparent">
            <path d="M77.79,14.4003033 C78.365147,14.9636167 78.5773985,15.8010452 78.34,16.5703033 C77.28,20.0003033 73.76,29.4203033 66.24,32.9103033 C61.1,35.2903033 57.91,30.2103033 55.32,33.6803033 C52.73,37.1503033 57.42,38.6803033 62.24,37.9903033 C63.0908708,37.8507026 63.9432567,38.2305138 64.408424,38.9565226 C64.8735914,39.6825314 64.8624182,40.6156411 64.38,41.3303033 C61.8256786,45.3692978 57.4271503,47.8704218 52.65,48.0003033 C41.81,48.2703033 40.1,36.4203033 38.08,37.8103033 C35.36,39.7003033 39.35,44.3603033 42.47,47.3803033 C43.0807794,47.9661482 43.2931483,48.8547226 43.0132768,49.6534327 C42.7334054,50.4521427 42.0128619,51.0138206 41.17,51.0903033 C32.41,51.9303033 21.45,47.5803033 21.37,36.0903033 C21.29,23.1503033 17.12,24.2903033 16.26,17.7403033 C15.35,10.8603033 20.14,2.86030331 30,1.05030331 C30.8088913,0.902715932 31.6314227,1.22718477 32.1217082,1.88726604 C32.6119936,2.54734731 32.6849895,3.42854517 32.31,4.16030331 C29.9,8.89030331 26.31,16.7603033 29.49,16.7203033 C32.95,16.7203033 27.91,-5.85969669 57.92,1.46030331 C58.6565197,1.64201272 59.2437302,2.1967743 59.4669687,2.92178752 C59.6902072,3.64680074 59.5167475,4.43577998 59.01,5.00030331 L58.91,5.11030331 C58.2373635,5.85703176 58.1686154,6.96901642 58.7441486,7.79291252 C59.3196819,8.61680863 60.3874137,8.93490445 61.32,8.56030331 C64.98,7.04030331 70.48,7.29030331 77.79,14.4003033" id="Path" fill="#FE6183" fill-rule="nonzero"></path>
            <path d="M2.84217094e-14,58.8803033 C2.84217094e-14,58.8803033 3.48,28.7703033 21.7,28.7703033" id="Path" stroke="#FE6183" stroke-width="2"></path>
            <animateTransform
              attributeName="transform"
              type="rotate"
              values="0; -10; 0; 5; 0"
              keyTimes="0; 0.25; .5; .75; 1"
              calcMode="paced"
              dur="2s"
              additive="sum"
              repeatCount="indefinite"
            />
        </g>
        <line x1="26" y1="274" x2="304" y2="274" id="ground" stroke="white" stroke-width="2">
          <animateTransform
            attributeName="transform"
            type="scale"
            values="1 1; 0.5 1"
            dur="1s"
            additive="sum"
            fill="freeze"
          />
        </line>
        <animate
          attributeType="CSS"
          attributeName="opacity"
          from="0"
          to="1"
          dur="1s"
          fill="freeze"
        />
    </g>
</svg>
