<?xml version="1.0" encoding="UTF-8"?>
<svg width="270px" height="261px" viewBox="0 0 270 261" version="1.1" xmlns="http://www.w3.org/2000/svg" xmlns:xlink="http://www.w3.org/1999/xlink">
    <!-- Generator: Sketch 64 (93537) - https://sketch.com -->
    <title>primary-award</title>
    <desc>Created with Sketch.</desc>
    <defs>
        <path d="M35.52,73.53 L18.39,73.53 C8.70884274,73.4860004 0.880901443,65.6312511 0.87,55.95 L0.87,18.1 C0.880901443,8.41874889 8.70884274,0.563999577 18.39,0.52 L35.52,0.52 C45.1972491,0.569480474 53.0191295,8.42263053 53.03,18.1 L53.03,55.93 C53.0246576,65.6129146 45.20276,73.4750161 35.52,73.53 Z" id="path-1"></path>
    </defs>
    <style type="text/css" >
      <![CDATA[
        #air-after-1,
        #air-after-2,
        #air-after-3 {
          transform-box: fill-box;
          transform-origin: 100% 50%;
        }

        #mountains {
          transform-box: fill-box;
          transform-origin: 50% 100%;
        }

        #top path {
          transform-box: fill-box;
          transform-origin: 50% 50%;
        }
      ]]>
    </style>

    <g id="primary-award" transform="translate(1.000000, 1.000000)">
        <g id="primary-award-to" transform="translate(13.000000, 34.000000)">
            <g id="skies" transform="translate(34.653432, 0.014212)" fill="#FFFFFF" fill-rule="nonzero" opacity="0">
                <path d="M2.00656795,222.875788 C0.806001424,222.769762 -0.0857584398,221.717486 0.00656795096,220.515788 L13.666568,27.345788 C14.766568,11.855788 8.86656795,5.42578799 4.91656795,2.87578799 C4.45911864,2.56699922 4.23570026,2.01085329 4.35239489,1.47141586 C4.46908952,0.93197843 4.90239339,0.517898955 5.44656795,0.425787993 C13.866568,-0.914212007 33.046568,-0.914212007 30.866568,29.275788 L17.296568,221.755788 C17.1905046,222.952166 16.1445133,223.842371 14.946568,223.755788 L2.00656795,222.875788 Z" id="Path"></path>
                <path d="M35.366568,223.255788 C34.7830743,223.247886 34.2266246,223.008487 33.8196591,222.590269 C33.4126936,222.172051 33.188557,221.60928 33.196568,221.025788 L35.436568,27.395788 C35.626568,11.865788 29.366568,5.78578799 25.276568,3.48578799 C24.8066629,3.20198183 24.5554061,2.66189137 24.6410233,2.11964936 C24.7266404,1.57740734 25.1320802,1.14100581 25.666568,1.01578799 C34.026568,-0.884212007 53.156568,-1.98421201 52.816568,28.295788 L50.566568,221.225788 C50.5612877,221.809272 50.3244232,222.366757 49.9080871,222.775592 C49.4917511,223.184426 48.9300514,223.411117 48.346568,223.40588 L35.366568,223.255788 Z" id="Path"></path>
                <animate
                  begin="windowTransfrom.end + 0.2s"
                  attributeType="CSS"
                  attributeName="opacity"
                  from="0"
                  to="1"
                  dur="0.3s"
                  fill="freeze"
                />
                <animateTransform
                  begin="windowTransfrom.end + 0.2s"
                  attributeName="transform"
                  type="translate"
                  from="-100, 0"
                  to="0, 0"
                  dur="0.3s"
                  additive="sum"
                />
            </g>
            <g id="chair" transform="translate(68.079966, 59.189391)" fill="#9f83df" opacity="0">
                <path d="M134.940034,95.7306095 L74.2000345,95.7306095 L74.2000345,81.5406095 L129.290034,81.5406095 C134.764793,81.5516445 139.195565,85.9958425 139.19004,91.4706095 C139.184536,93.8155385 137.284964,95.7151114 134.940034,95.7206095" id="Path" fill="#A67EE5" fill-rule="nonzero"></path>
                <path d="M134.940034,95.7306095 L74.2000345,95.7306095 L74.2000345,81.5406095 L129.290034,81.5406095 C134.764793,81.5516445 139.195565,85.9958425 139.19004,91.4706095 C139.19004,93.8194428 137.288861,95.7250958 134.940034,95.7306095 Z" id="Path" stroke="#FFFFFF" stroke-width="2"></path>
                <polygon id="Path" fill="#A67EE5" fill-rule="nonzero" points="62.9100345 164.220609 48.9400345 164.220609 42.6300345 122.630609 56.6000345 122.630609"></polygon>
                <polygon id="Path" stroke="#FFFFFF" stroke-width="2" points="62.9100345 164.220609 48.9400345 164.220609 42.6300345 122.630609 56.6000345 122.630609"></polygon>
                <polygon id="Path" fill="#A67EE5" fill-rule="nonzero" points="112.460034 164.220609 98.5000345 164.220609 92.2000345 122.630609 106.160034 122.630609"></polygon>
                <polygon id="Path" stroke="#FFFFFF" stroke-width="2" points="112.460034 164.220609 98.5000345 164.220609 92.2000345 122.630609 106.160034 122.630609"></polygon>
                <path d="M158.770034,108.360609 L102.880034,108.360609 C100.109289,108.360843 97.7564766,106.331382 97.3500345,103.590609 L86.4900345,31.3506095 C92.4099253,26.4484342 94.4920126,18.2873968 91.6441439,11.1483442 C88.7962753,4.00929149 81.668647,-0.477860675 74.0000345,0.0406094591 L18.9200345,0.0406094591 L18.6000345,102.910609 L34.3700345,126.260609 L81.5600345,134.650609 C82.9119665,135.145659 84.3403147,135.400609 85.7800345,135.400609 L158.780034,135.400609 C166.252447,135.400609 172.310034,129.343022 172.310034,121.870609 C172.310034,114.398197 166.252447,108.340609 158.780034,108.340609" id="Path" fill="#A67EE5" fill-rule="nonzero"></path>
                <path d="M158.770034,108.360609 L102.880034,108.360609 C100.109289,108.360843 97.7564766,106.331382 97.3500345,103.590609 L86.4900345,31.3506095 C92.4099253,26.4484342 94.4920126,18.2873968 91.6441439,11.1483442 C88.7962753,4.00929149 81.668647,-0.477860675 74.0000345,0.0406094591 L18.9200345,0.0406094591 L18.6000345,102.910609 L34.3700345,126.260609 L81.5600345,134.650609 C82.9119665,135.145659 84.3403147,135.400609 85.7800345,135.400609 L158.780034,135.400609 C166.044619,135.118473 171.78765,129.145859 171.784962,121.875798 C171.782273,114.605737 166.034826,108.637373 158.770034,108.360609 Z" id="Path" stroke="#FFFFFF" stroke-width="2"></path>
                <path d="M39.8600345,103.600609 L29.0000345,31.3606095 C35.3386873,26.1158376 37.2307737,17.1965675 33.5674182,9.83002297 C29.9040627,2.46347843 21.6500926,-1.41019512 13.6428262,0.479205822 C5.63555972,2.36860677 -0.016109045,9.52346589 5.68434189e-14,17.7506095 C0.0024200095,19.530038 0.268648521,21.2992781 0.790034496,23.0006095 L16.0900345,124.910609 C16.9908327,130.961466 22.1824989,135.443051 28.3000345,135.450609 L101.300034,135.450609 C108.626488,135.251375 114.462237,129.254772 114.462237,121.925609 C114.462237,114.596447 108.626488,108.599844 101.300034,108.400609 L45.3900345,108.400609 C42.620776,108.387364 40.2739181,106.358797 39.8600345,103.620609" id="Path" fill="#A67EE5" fill-rule="nonzero"></path>
                <path d="M39.8600345,103.600609 L29.0000345,31.3606095 C35.3386873,26.1158376 37.2307737,17.1965675 33.5674182,9.83002297 C29.9040627,2.46347843 21.6500926,-1.41019512 13.6428262,0.479205822 C5.63555972,2.36860677 -0.016109045,9.52346589 5.68434189e-14,17.7506095 C0.0024200095,19.530038 0.268648521,21.2992781 0.790034496,23.0006095 L16.0900345,124.910609 C16.9908327,130.961466 22.1824989,135.443051 28.3000345,135.450609 L101.300034,135.450609 C108.626488,135.251375 114.462237,129.254772 114.462237,121.925609 C114.462237,114.596447 108.626488,108.599844 101.300034,108.400609 L45.3900345,108.400609 C42.6142469,108.385857 40.2650092,106.346736 39.8600345,103.600609 Z" id="Path" stroke="#FFFFFF" stroke-width="2"></path>
                <path d="M83.7000345,95.7306095 L11.7000345,95.7306095 L9.5700345,81.5406095 L78.0400345,81.5406095 C83.5147931,81.5516445 87.9455645,85.9958425 87.9400397,91.4706095 C87.9345364,93.8155385 86.0349635,95.7151114 83.6900345,95.7206095" id="Path" fill="#A67EE5" fill-rule="nonzero"></path>
                <path d="M83.7000345,95.7306095 L11.7000345,95.7306095 L9.5700345,81.5406095 L78.0400345,81.5406095 C83.5147931,81.5516445 87.9455645,85.9958425 87.9400397,91.4706095 C87.9400397,93.8155541 86.0449533,95.7196003 83.7000345,95.7306095 L83.7000345,95.7306095 Z" id="Path" stroke="#FFFFFF" stroke-width="2"></path>
                <line x1="29.0000345" y1="31.3506095" x2="86.4900345" y2="31.3506095" id="Path" stroke="#FFFFFF" stroke-width="2" stroke-linecap="round"></line>
                <animate
                  begin="windowTransfrom.end"
                  attributeType="CSS"
                  attributeName="opacity"
                  from="0"
                  to="1"
                  dur="0.3s"
                  fill="freeze"
                />
                <animateTransform
                  begin="windowTransfrom.end"
                  attributeName="transform"
                  type="translate"
                  from="-100, 0"
                  to="0, 0"
                  dur="0.3s"
                  additive="sum"
                />
            </g>
            <g id="plant" transform="translate(0.000000, 66.570000)" opacity="0" fill="transparent">
                <path d="M24.7,22.53 C30.9460744,30.8460081 36.1795913,39.8762585 40.29,49.43 C33.1260367,41.9937884 26.4203566,34.1293081 20.21,25.88 C14.008331,17.6019275 8.30812166,8.95978241 3.14,0 C11.1934227,6.62980661 18.4307947,14.1927932 24.7,22.53" id="Path" fill="#36E69A" fill-rule="nonzero"></path>
                <path d="M26.46,42.92 C34.8582696,48.8058313 42.513856,55.6857859 49.26,63.41 C40.3276925,58.7169467 31.697526,53.4700459 23.42,47.7 C15.2248046,41.9694515 7.40235053,35.7235125 1.0658141e-14,29 C9.36657708,32.5170793 18.2557614,37.1934756 26.46,42.92" id="Path" fill="#36E69A" fill-rule="nonzero"></path>
                <path d="M39.18,34.01 C41.9473934,44.0000018 45.3134777,53.8144085 49.26,63.4 C49.0195321,53.0804287 47.5081397,42.8298294 44.76,32.88 C41.906485,22.6283446 37.858756,12.747321 32.7,3.44 C34.2426214,13.7503561 36.4031789,23.9587401 39.17,34.01" id="Path" fill="#36E69A" fill-rule="nonzero"></path>
                <path d="M52.84,42.05 C52.8972629,52.3058972 53.5852282,62.5485654 54.9,72.72 C57.4180665,62.9024535 58.68147,52.8053054 58.66,42.67 C58.5951757,32.0936767 57.2521005,21.5639667 54.66,11.31 C53.3739526,21.5055756 52.749313,31.7737154 52.79,42.05" id="Path" fill="#25B774" fill-rule="nonzero"></path>
                <path d="M28.6,58.09 C37.9342017,61.8657697 46.764766,66.7832083 54.89,72.73 C45.3121531,70.2827604 35.9052658,67.2094876 26.73,63.53 C17.6774448,59.8687818 8.86932352,55.6300614 0.36,50.84 C10.0508432,52.0457591 19.5457828,54.4959576 28.61,58.13" id="Path" fill="#25B774" fill-rule="nonzero"></path>
                <path d="M33.58,72.36 C43.2005772,74.9073419 52.4606221,78.6604153 61.14,83.53 C51.4284226,82.3329244 41.8118787,80.4617415 32.36,77.93 C23.0257096,75.4232838 13.8660203,72.3065842 4.94,68.6 C14.6095425,68.6232438 24.2368391,69.8766405 33.59,72.33" id="Path" fill="#25B774" fill-rule="nonzero"></path>
                <path d="M64.23,53.32 C62.5529084,63.3269444 61.5174622,73.4308952 61.13,83.57 C65.2762259,74.472167 68.240333,64.8808271 69.95,55.03 C71.6999297,44.7308328 72.1768413,34.2555703 71.37,23.84 C68.2920621,33.4850898 65.902723,43.3365185 64.22,53.32" id="Path" fill="#25B774" fill-rule="nonzero"></path>
                <path d="M44.38,90.53 C53.8868808,93.4872359 62.9821886,97.6333791 71.45,102.87 C61.7948552,101.267008 52.2621169,98.9982627 42.92,96.08 C33.7010562,93.1911563 24.6816689,89.7003194 15.92,85.63 C25.5759565,86.0509258 35.1392559,87.6974531 44.38,90.53" id="Path" fill="#068E4D" fill-rule="nonzero"></path>
                <path d="M75.79,72.82 C73.6992392,82.7498629 72.2495777,92.8039665 71.45,102.92 C75.9738871,93.9996119 79.3346535,84.5356938 81.45,74.76 C83.6246336,64.5435954 84.5347961,54.0985575 84.16,43.66 C80.688437,53.1704542 77.8947817,62.9148308 75.8,72.82" id="Path" fill="#068E4D" fill-rule="nonzero"></path>
                <path d="M54.42,109.22 C63.7988333,112.573925 72.7161618,117.099789 80.96,122.69 C71.3777662,120.673502 61.9455223,118.000531 52.73,114.69 C43.6372321,111.41626 34.7683049,107.551345 26.18,103.12 C35.813353,103.939059 45.3030949,105.982176 54.42,109.2" id="Path" fill="#068E4D" fill-rule="nonzero"></path>
                <path d="M86.52,92.79 C84.0192476,102.626367 82.1553805,112.613755 80.94,122.69 C85.8222853,113.959158 89.5692773,104.640406 92.09,94.96 C94.6927018,84.8304054 96.0361758,74.418482 96.09,63.96 C92.2218643,73.3314563 89.0238276,82.9656672 86.52,92.79" id="Path" fill="#068E4D" fill-rule="nonzero"></path>
                <path d="M38.14,46.2 C61.3550177,80.6192524 80.4395535,117.650502 95,156.53" id="Path" stroke="#36E69A" stroke-width="2" stroke-linecap="round" stroke-linejoin="round"></path>
                <animate
                  begin="windowTransfrom.end + 0.1s"
                  attributeType="CSS"
                  attributeName="opacity"
                  from="0"
                  to="1"
                  dur="0.3s"
                  fill="freeze"
                />
                <animateTransform
                  begin="windowTransfrom.end + 0.1s"
                  attributeName="transform"
                  type="translate"
                  from="-100, 0"
                  to="0, 0"
                  dur="0.3s"
                  additive="sum"
                />
                <animateTransform
                  begin="windowTransfrom.end + 0.1s"
                  attributeName="transform"
                  type="rotate"
                  values="0 96 158; 10 96 158; 0 96 158"
                  dur="1s"
                  additive="sum"
                />
            </g>
            <line x1="25" y1="224" x2="234" y2="224" id="floor" stroke="#FFFFFF" stroke-width="2" stroke-linecap="round" opacity="0">
              <animate
                attributeType="CSS"
                attributeName="opacity"
                from="0"
                to="1"
                dur="0.1s"
                begin="mountainTranfrom.end"
                fill="freeze"
              />
            </line>
            <g transform="translate(185.000000, 47.000000)" fill="transparent" opacity="0">
                <path d="M35.52,73.53 L18.39,73.53 C8.70884274,73.4860004 0.880901443,65.6312511 0.87,55.95 L0.87,18.1 C0.880901443,8.41874889 8.70884274,0.563999577 18.39,0.52 L35.52,0.52 C45.1972491,0.569480474 53.0191295,8.42263053 53.03,18.1 L53.03,55.93 C53.0246576,65.6129146 45.20276,73.4750161 35.52,73.53 Z" id="Path" stroke="#FFFFFF" stroke-width="2"></path>
                <mask id="mask-2" fill="white">
                    <use xlink:href="#path-1"></use>
                </mask>
                <g id="Path"></g>
                <g id="clouds" mask="url(#mask-2)" stroke="#FFFFFF" stroke-linecap="round" stroke-width="2">
                    <g transform="translate(-184.000000, 24.000000)" id="Path">
                        <g transform="translate(100, 0)">
                          <line x1="27.18" y1="37.34" x2="90.09" y2="37.34"></line>
                          <path d="M0,27.08 L35.29,27.08 C35.29,20.2316691 40.8416691,14.68 47.69,14.68 C54.5383309,14.68 60.09,20.2316691 60.09,27.08 L78.02,27.08" fill="transparent"></path>

                          <animateTransform
                            attributeName="transform"
                            type="translate"
                            values="300 0; -300 0"
                            dur="4s"
                            additive="replace"
                            begin="windowTransfrom.end"
                            repeatCount="indefinite"
                          />
                        </g>
                        <g transform="translate(100, 0)">
                          <line x1="217.19" y1="22.72" x2="256.97" y2="22.72"></line>
                          <path d="M236.98,12.45 L209.62,12.45 C209.62,5.6016691 204.068331,0.05 197.22,0.05 C190.371669,0.05 184.82,5.6016691 184.82,12.45 L166.88,12.45" fill="transparent"></path>
                          <line x1="245.24" y1="12.45" x2="267.43" y2="12.45"></line>

                          <animateTransform
                            attributeName="transform"
                            type="translate"
                            values="100 0; -100 0"
                            dur="2s"
                            additive="replace"
                            begin="windowTransfrom.end + 1s"
                            repeatCount="indefinite"
                          />
                        </g>
                    </g>
                </g>

                <animate
                  attributeType="CSS"
                  attributeName="opacity"
                  from="0"
                  to="1"
                  dur="0.1s"
                  begin="windowTransfrom.end"
                  fill="freeze"
                />
            </g>
        </g>
        <g id="primary-award-from">
            <g id="zepelin" transform="translate(71.480000, 82.620000)">
                <g id="body" stroke-linecap="round" transform="translate(59.110000, 67.230000)" stroke="#FFFFFF" stroke-width="2">
                    <path d="M3.08,28.97 L51.44,28.97 C57.7555306,28.9658185 63.1930765,24.5112136 64.44,18.32 L68.18,0 L0,0 L0,25.89 C0.00548876124,27.5887583 1.38124168,28.9645112 3.08,28.97 L3.08,28.97 Z" id="Path" stroke-linejoin="round" fill="transparent"></path>
                    <path d="M63.43,21.38 L54.21,21.38 C49.6322338,21.3634737 45.93,17.647796 45.93,13.07 L45.93,0" id="Path" fill="transparent"></path>
                    <animateTransform
                      attributeName="transform"
                      type="skewX"
                      values="7.5; 0; 7.5"
                      dur="1.5s"
                      additive="sum"
                      repeatCount="indefinite"
                    />
                    <animateTransform
                      attributeName="transform"
                      type="scale"
                      values="1 0.9; 1 1; 1 0.9"
                      dur="1.5s"
                      additive="sum"
                      repeatCount="indefinite"
                    />
                    <animate
                      attributeType="CSS"
                      attributeName="opacity"
                      from="1"
                      to="0"
                      dur="0.5s"
                      begin="windowAnim.end"
                      fill="freeze"
                    />
                </g>
                <g id="tail-front">
                  <g id="tail-t-2" transform="translate(1.000000, 20.250000)">
                      <path d="M8.98,0.01 L18.14,0.01 C19.0142976,0.00999596133 19.852641,0.357992343 20.469924,0.977151533 C21.0872069,1.59631072 21.4326574,2.43570641 21.4300152,3.31 L21.4300152,9.02 C21.4326574,9.89429359 21.0872069,10.7336893 20.469924,11.3528485 C19.852641,11.9720077 19.0142976,12.32 18.14,12.32 L1.32,12.32 C0.59098413,12.32 0,11.7290159 0,11 L0,9 C0,4.02943725 4.02943725,0 9,0" id="Path" fill="#068E4D" fill-rule="nonzero"></path>
                      <path d="M8.98,0.01 L18.14,0.01 C19.0142976,0.01 19.852641,0.357992343 20.469924,0.977151533 C21.0872069,1.59631072 21.4326574,2.43570641 21.4300152,3.31 L21.4300152,9.02 C21.4326574,9.89429359 21.0872069,10.7336893 20.469924,11.3528485 C19.852641,11.9720077 19.0142976,12.32 18.14,12.32 L1.32,12.32 C0.59098413,12.32 0,11.7290159 0,11 L0,9 C0.00549760918,4.04114117 4.02115036,0.0210166456 8.98,0.01 Z" id="Path" stroke="#FFFFFF" stroke-width="2" stroke-linecap="round" stroke-linejoin="round" fill="#068E4D"></path>
                  </g>
                  <g id="tail-b-2" transform="translate(1.000000, 42.000000)">
                      <path d="M8.98,12.31 L18.14,12.31 C19.0142976,12.310004 19.852641,11.9620077 20.469924,11.3428485 C21.0872069,10.7236893 21.4326574,9.88429359 21.4300152,9.01 L21.4300152,3.3 C21.4326574,2.42570641 21.0872069,1.58631072 20.469924,0.967151533 C19.852641,0.347992343 19.0142976,-7.10542736e-15 18.14,-7.10542736e-15 L1.32,-7.10542736e-15 C0.59098413,-7.10542736e-15 0,0.59098413 0,1.32 L0,3.32 C0,8.29056275 4.02943725,12.32 9,12.32" id="Path" fill="#068E4D" fill-rule="nonzero"></path>
                      <path d="M8.98,12.31 L18.14,12.31 C19.0142976,12.31 19.852641,11.9620077 20.469924,11.3428485 C21.0872069,10.7236893 21.4326574,9.88429359 21.4300152,9.01 L21.4300152,3.3 C21.4326574,2.42570641 21.0872069,1.58631072 20.469924,0.967151533 C19.852641,0.347992343 19.0142976,-7.10542736e-15 18.14,-7.10542736e-15 L1.32,-7.10542736e-15 C0.59098413,-7.10542736e-15 0,0.59098413 0,1.32 L0,3.32 C0.00549760918,8.27885883 4.02115036,12.2989834 8.98,12.31 L8.98,12.31 Z" id="Path" stroke="#FFFFFF" stroke-width="2" stroke-linecap="round" stroke-linejoin="round" fill="#068E4D"></path>
                  </g>
                  <animateTransform
                    attributeName="transform"
                    type="translate"
                    values="0, -2; 0, 2; 0, -2"
                    dur="1.5s"
                    additive="sum"
                    repeatCount="indefinite"
                  />
                  <animate
                    attributeType="CSS"
                    attributeName="opacity"
                    from="1"
                    to="0"
                    dur="0.5s"
                    begin="windowAnim.end"
                    fill="freeze"
                  />
                </g>
                <g id="top" transform="translate(11.603079, 0.000000)">
                    <path d="M80.1469208,74 C123.526921,74 155.006921,58.45 155.006921,37 C155.006921,15.55 123.526921,7.10542736e-15 80.1469208,7.10542736e-15 C52.2069208,7.10542736e-15 24.7869208,13.53 6.68692079,24.87 C2.52534929,27.4872964 0,32.0588106 0,36.975 C0,41.8911894 2.52534929,46.4627036 6.68692079,49.08 C24.7769208,60.41 52.2069208,73.95 80.1469208,73.95" id="Path" fill="#068E4D" fill-rule="nonzero"></path>
                    <path d="M80.1469208,74 C123.526921,74 155.006921,58.45 155.006921,37 C155.006921,15.55 123.526921,7.10542736e-15 80.1469208,7.10542736e-15 C52.2069208,7.10542736e-15 24.7869208,13.53 6.68692079,24.87 C2.52534929,27.4872964 0,32.0588106 0,36.975 C0,41.8911894 2.52534929,46.4627036 6.68692079,49.08 C24.7769208,60.46 52.2069208,74 80.1469208,74 Z" fill="#068E4D" id="Path" stroke="#FFFFFF" stroke-width="2"></path>
                    <path d="M80.1469208,28.01 C51.9169208,28.01 24.0769208,28.77 7.33692079,33.01 C3.38692079,34.01 1.33692079,35.67 1.25692079,37.35 C1.09075713,32.7286794 3.40524007,28.3704356 7.32692079,25.92 C24.0669208,15.42 51.9069208,1.24 80.1369208,1.24 C124.946921,1.24 153.776921,17.24 153.776921,36.99 C153.776921,37.11 153.776921,37.23 153.776921,37.36 C153.406921,29.41 124.676921,27.99 80.1469208,27.99 L80.1469208,28.01 Z" id="top-top" fill="#36E69A" fill-rule="nonzero">
                    </path>
                    <path d="M7.32692079,42.04 C24.0669208,46.31 51.9069208,52.04 80.1369208,52.04 C124.276921,52.04 152.886921,45.72 153.736921,37.86 C152.876921,57.2 124.286921,72.72 80.1369208,72.72 C51.9069208,72.72 24.0669208,58.53 7.32692079,48.04 C3.79649203,45.8184245 1.56050769,42.0247043 1.32692079,37.86 C1.58692079,39.47 3.58692079,41.04 7.32692079,42" id="bottom-top" fill="#068E4D" fill-rule="nonzero">
                    </path>
                    <path d="M80.1369208,28.1 C124.666921,28.1 153.396921,29.516724 153.746921,37.4503097 C153.746921,37.6199587 153.746921,37.7896077 153.746921,37.9592567 C152.896921,45.8030282 124.296921,57.1 80.1469208,57.1 C51.9169208,57.1 24.0769208,46.3518926 7.33692079,42.1206469 C3.54692079,41.1227116 1.54692079,39.5958706 1.33566677,37.9991741 L1.33566677,37.4902271 C1.33566677,29.516724 51.9069208,28.1 80.1369208,28.1 Z;" id="middle-top" fill="#25B774" fill-rule="nonzero">
                      <animate attributeName="d" values="
                        M80.1369208,28.1 C124.666921,28.1 153.396921,29.516724 153.746921,37.4503097 C153.746921,37.6199587 153.746921,37.7896077 153.746921,37.9592567 C152.896921,45.8030282 124.296921,57.1 80.1469208,57.1 C51.9169208,57.1 24.0769208,46.3518926 7.33692079,42.1206469 C3.54692079,41.1227116 1.54692079,39.5958706 1.33566677,37.9991741 L1.33566677,37.4902271 C1.33566677,29.516724 51.9069208,28.1 80.1369208,28.1 Z;
                        M80.1369208,18.1 C124.666921,18.1 153.396921,29.516724 153.746921,37.4503097 C153.746921,37.6199587 153.746921,37.7896077 153.746921,37.9592567 C152.896921,45.8030282 124.296921,47.1 80.1469208,47.1 C51.9169208,47.1 24.0769208,46.3518926 7.33692079,42.1206469 C3.54692079,41.1227116 1.54692079,39.5958706 1.33566677,37.9991741 L1.33566677,37.4902271 C1.33566677,29.516724 51.9069208,18.1 80.1369208,18.1 Z;
                        M80.1369208,28.1 C124.666921,28.1 153.396921,29.516724 153.746921,37.4503097 C153.746921,37.6199587 153.746921,37.7896077 153.746921,37.9592567 C152.896921,45.8030282 124.296921,57.1 80.1469208,57.1 C51.9169208,57.1 24.0769208,46.3518926 7.33692079,42.1206469 C3.54692079,41.1227116 1.54692079,39.5958706 1.33566677,37.9991741 L1.33566677,37.4902271 C1.33566677,29.516724 51.9069208,28.1 80.1369208,28.1 Z;"
                        dur="1.5s"
                        repeatCount="indefinite"
                      />
                    </path>
                    <animate
                      attributeType="CSS"
                      attributeName="opacity"
                      from="1"
                      to="0"
                      dur="0.5s"
                      begin="windowAnim.end"
                      fill="freeze"
                    />
                </g>
                <g id="tail-back">
                  <g id="tail-b-1" transform="translate(0.520000, 42.380000)">
                      <path d="M8.98,12.31 L18.14,12.31 C19.0142976,12.310004 19.852641,11.9620077 20.469924,11.3428485 C21.0872069,10.7236893 21.4326574,9.88429359 21.4300152,9.01 L21.4300152,3.3 C21.4326574,2.42570641 21.0872069,1.58631072 20.469924,0.967151533 C19.852641,0.347992343 19.0142976,-7.10542736e-15 18.14,-7.10542736e-15 L1.32,-7.10542736e-15 C0.59098413,-7.10542736e-15 0,0.59098413 0,1.32 L0,3.32 C0,8.29056275 4.02943725,12.32 9,12.32" id="Path" fill="#068E4D" fill-rule="nonzero"></path>
                      <path d="M8.98,12.31 L18.14,12.31 C19.0142976,12.31 19.852641,11.9620077 20.469924,11.3428485 C21.0872069,10.7236893 21.4326574,9.88429359 21.4300152,9.01 L21.4300152,3.3 C21.4326574,2.42570641 21.0872069,1.58631072 20.469924,0.967151533 C19.852641,0.347992343 19.0142976,-7.10542736e-15 18.14,-7.10542736e-15 L1.32,-7.10542736e-15 C0.59098413,-7.10542736e-15 0,0.59098413 0,1.32 L0,3.32 C0.00549760918,8.27885883 4.02115036,12.2989834 8.98,12.31 L8.98,12.31 Z" id="Path" stroke="#FFFFFF" stroke-width="2" stroke-linecap="round" stroke-linejoin="round" fill="#068E4D"></path>
                  </g>
                  <g id="tail-t-1" transform="translate(1.000000, 20.250000)">
                      <path d="M8.98,0.01 L18.14,0.01 C19.0142976,0.00999596133 19.852641,0.357992343 20.469924,0.977151533 C21.0872069,1.59631072 21.4326574,2.43570641 21.4300152,3.31 L21.4300152,9.02 C21.4326574,9.89429359 21.0872069,10.7336893 20.469924,11.3528485 C19.852641,11.9720077 19.0142976,12.32 18.14,12.32 L1.32,12.32 C0.59098413,12.32 0,11.7290159 0,11 L0,9 C0,4.02943725 4.02943725,0 9,0" id="Path" fill="#068E4D" fill-rule="nonzero"></path>
                      <path d="M8.98,0.01 L18.14,0.01 C19.0142976,0.01 19.852641,0.357992343 20.469924,0.977151533 C21.0872069,1.59631072 21.4326574,2.43570641 21.4300152,3.31 L21.4300152,9.02 C21.4326574,9.89429359 21.0872069,10.7336893 20.469924,11.3528485 C19.852641,11.9720077 19.0142976,12.32 18.14,12.32 L1.32,12.32 C0.59098413,12.32 0,11.7290159 0,11 L0,9 C0.00549760918,4.04114117 4.02115036,0.0210166456 8.98,0.01 Z" id="Path" stroke="#FFFFFF" stroke-width="2" stroke-linecap="round" stroke-linejoin="round" fill="#068E4D"></path>
                  </g>

                  <animateTransform
                    attributeName="transform"
                    type="translate"
                    values="0, 2; 0, -2; 0, 2"
                    dur="1.5s"
                    additive="sum"
                    repeatCount="indefinite"
                  />
                  <animate
                    attributeType="CSS"
                    attributeName="opacity"
                    from="1"
                    to="0"
                    dur="0.5s"
                    begin="windowAnim.end"
                    fill="freeze"
                  />
                </g>
                <g id="windows" transform="translate(66.910000, 78.380000)" stroke="#FFFFFF" stroke-width="2">
                  <path d="M24.5289321,9.82 L21.6027761,9.82 C19.9490354,9.81408196 18.6118622,8.7576015 18.61,7.45545268 L18.61,2.36454732 C18.6118622,1.06239849 19.9490354,0.00591803652 21.6027761,-3.19744231e-14 L24.5289321,-3.19744231e-14 C26.1820052,0.0066552288 27.5181431,1.06292058 27.52,2.36454732 L27.52,7.45276264 C27.5190874,8.75513521 26.1829465,9.81260455 24.5289321,9.82 Z" fill="transparent">
                    <animateTransform
                      id="windowAnim"
                      attributeName="transform"
                      type="skewX"
                      values="7.5; 0; 7.5"
                      dur="1.5s"
                      additive="sum"
                      repeatDur="3s"
                    />
                    <animateTransform
                      attributeName="transform"
                      type="scale"
                      values="1 0.9; 1 1; 1 0.9"
                      dur="1.5s"
                      additive="sum"
                      repeatDur="3s"
                    />
                    <animate attributeName="d" values="
                        M24.5289321,9.82 L21.6027761,9.82 C19.9490354,9.81408196 18.6118622,8.7576015 18.61,7.45545268 L18.61,2.36454732 C18.6118622,1.06239849 19.9490354,0.00591803652 21.6027761,-3.19744231e-14 L24.5289321,-3.19744231e-14 C26.1820052,0.0066552288 27.5181431,1.06292058 27.52,2.36454732 L27.52,7.45276264 C27.5190874,8.75513521 26.1829465,9.81260455 24.5289321,9.82 Z;
                        M95.26,73.01 L78.13,73.01 C68.4488427,72.9660004 60.6209014,65.1112511 60.61,55.43 L60.61,17.58 C60.6209014,7.89874889 68.4488427,0.043999577 78.13,-7.10542736e-15 L95.26,-7.10542736e-15 C104.937249,0.049480474 112.75913,7.90263053 112.77,17.58 L112.77,55.41 C112.764658,65.0929146 104.94276,72.9550161 95.26,73.01 Z;"
                        dur="1.5s"
                        begin="windowAnim.end"
                        fill="freeze"
                    />
                    <animateTransform
                      id="windowTransfrom"
                      attributeName="transform"
                      type="translate"
                      values="0 0; 0 -80"
                      dur="1.5s"
                      additive="sum"
                      begin="windowAnim.end"
                      fill="freeze"
                    />
                  </path>
                  <path d="M5.48,0.42 L3.43,0.42 C1.53243274,0.4310006 4.08562073e-14,1.9724009 4.08562073e-14,3.87 L4.08562073e-14,6.79 C4.08562073e-14,8.6875991 1.53243274,10.2289994 3.43,10.24 L5.48,10.24 C7.3775673,10.2289994 8.91,8.6875991 8.91,6.79 L8.91,3.87 C8.91,1.9724009 7.3775673,0.4310006 5.48,0.42 L5.48,0.42 Z" id="Path" stroke-linecap="round" stroke-linejoin="round" fill="transparent">
                    <animateTransform
                      id="windowAnim"
                      attributeName="transform"
                      type="skewX"
                      values="7.5; 0; 7.5"
                      dur="1.5s"
                      additive="sum"
                      repeatCount="indefinite"
                    />
                    <animateTransform
                      attributeName="transform"
                      type="scale"
                      values="1 0.9; 1 1; 1 0.9"
                      dur="1.5s"
                      additive="sum"
                      repeatCount="indefinite"
                    />
                    <animate
                      attributeType="CSS"
                      attributeName="opacity"
                      from="1"
                      to="0"
                      dur="0.5s"
                      begin="windowAnim.end"
                      fill="freeze"
                    />
                  </path>
                </g>
            </g>
            <g id="clouds">
              <g id="cloud-1" transform="translate(0.000000, 14.680000)" stroke="#FFFFFF" stroke-linecap="round" stroke-width="2">
                  <line x1="27.18" y1="22.66" x2="90.09" y2="22.66" id="Path"></line>
                  <path d="M0,12.4 L35.29,12.4 C35.29,5.5516691 40.8416691,-1.42108547e-14 47.69,-1.42108547e-14 C54.5383309,-1.42108547e-14 60.09,5.5516691 60.09,12.4 L78.02,12.4" id="Path" fill="transparent"></path>
                  <animateTransform
                    id="cloud1Trans"
                    attributeName="transform"
                    type="translate"
                    from="166.88, 14.68"
                    to="0, 14.68"
                    dur="2s"
                    additive="replace"
                  />
                  <animate
                    begin="cloud1Trans.end - 0.5s"
                    attributeType="CSS"
                    attributeName="opacity"
                    from="1"
                    to="0"
                    dur="0.5s"
                    fill="freeze"
                  />
              </g>
              <g id="cloud-2" transform="translate(166.880000, 0.050000)" stroke="#FFFFFF" stroke-linecap="round" stroke-width="2" opacity="0">
                  <line x1="50.31" y1="22.67" x2="90.09" y2="22.67" id="Path"></line>
                  <path d="M70.1,12.4 L42.74,12.4 C42.74,5.5516691 37.1883309,-1.42108547e-14 30.34,-1.42108547e-14 C23.4916691,-1.42108547e-14 17.94,5.5516691 17.94,12.4 L1.42108547e-14,12.4" id="Path" fill="transparent"></path>
                  <line x1="78.36" y1="12.4" x2="100.55" y2="12.4" id="Path" fill="transparent"></line>
                    <animate
                    begin="cloud1Trans.end - 0.5s"
                    attributeType="CSS"
                    attributeName="opacity"
                    from="0"
                    to="1"
                    dur="0.5s"
                    fill="freeze"
                  />
                  <animateTransform
                    begin="cloud1Trans.end - 0.5s"
                    id="cloud2Trans"
                    attributeName="transform"
                    type="translate"
                    from="166.88, 0.05"
                    to="0, 0.05"
                    dur="2s"
                    additive="replace"
                  />
                  <animate
                    begin="cloud2Trans.end - 0.5s"
                    attributeType="CSS"
                    attributeName="opacity"
                    from="1"
                    to="0"
                    dur="0.5s"
                    fill="freeze"
                  />
              </g>
            </g>
            <g id="air-after" transform="translate(27.000000, 108.530000)" stroke="#FFFFFF" stroke-linecap="round" stroke-width="2">
                <line class="air-after-1" x1="37.48" y1="0.5" x2="15.28" y2="0.5" id="air-after-1">
                  <animateTransform
                    attributeName="transform"
                    type="scale"
                    values="1 1; 0.9 1; 1 1"
                    dur="0.5s"
                    keyTimes="0; 0.25; .5; 1"
                    calcMode="paced"
                    repeatCount="indefinite"
                    additive="sum"
                  />
                </line>
                <line x1="37.48" y1="22.24" x2="15.28" y2="22.24" id="air-after-3">
                  <animateTransform
                    begin="0.1s"
                    attributeName="transform"
                    type="scale"
                    values="1 1; 0.7 1; 1 1"
                    dur="0.5s"
                    repeatCount="indefinite"
                    additive="sum"
                  />
                </line>
                <line x1="37.48" y1="11.99" x2="7.10542736e-15" y2="11.99" id="air-after-2">
                  <animateTransform
                    begin="0.2s"
                    attributeName="transform"
                    type="scale"
                    values="1 1; 0.8 1; 1 1"
                    dur="0.5s"
                    repeatCount="indefinite"
                    additive="sum"
                  />
                </line>

                <animate
                  attributeType="CSS"
                  attributeName="opacity"
                  from="1"
                  to="0"
                  dur="0.5s"
                  begin="windowAnim.end"
                  fill="freeze"
                />
            </g>
            <g id="earth" transform="translate(30.000000, 216.000000)" stroke="#FFFFFF" stroke-linecap="round" stroke-width="2">
                <path d="M217.16,41.8076518 L172.1,41.8076518 L140.02,10.5076518 C139.315606,9.91232203 138.284394,9.91232203 137.58,10.5076518 L127.38,20.7376518 C126.734003,21.2962293 125.775997,21.2962293 125.13,20.7376518 L106.13,0.56765178 C105.23526,-0.18921726 103.92474,-0.18921726 103.03,0.56765178 L76.61,26.2076518 C75.9656223,26.7705612 75.0043777,26.7705612 74.36,26.2076518 L71.73,23.2876518 C71.0763737,22.6889608 70.0736263,22.6889608 69.42,23.2876518 L52.0730792,41.4276518 L8,41.9276518" id="mountains" fill="transparent">
                  <animate
                    id="mountainTranfrom"
                    attributeName="d"
                    from="M217.16,41.8076518 L172.1,41.8076518 L140.02,10.5076518 C139.315606,9.91232203 138.284394,9.91232203 137.58,10.5076518 L127.38,20.7376518 C126.734003,21.2962293 125.775997,21.2962293 125.13,20.7376518 L106.13,0.56765178 C105.23526,-0.18921726 103.92474,-0.18921726 103.03,0.56765178 L76.61,26.2076518 C75.9656223,26.7705612 75.0043777,26.7705612 74.36,26.2076518 L71.73,23.2876518 C71.0763737,22.6889608 70.0736263,22.6889608 69.42,23.2876518 L52.0730792,41.4276518 L8,41.9276518" to="M217.16,41.8076518 L172.1,41.8076518 L140.02,41.8076518 C139.315606,41.8076518 138.284394,41.8076518 137.58,41.8076518 L127.38,41.8076518 C126.734003,41.8076518 125.775997,41.8076518 125.13,41.8076518 L106.13,41.8076518 C105.23526,41.8076518 103.92474,41.8076518 103.03,41.8076518 L76.61,41.8076518 C75.9656223,41.8076518 75.0043777,41.8076518 74.36,41.8076518 L71.73,41.8076518 C71.0763737,41.8076518 70.0736263,41.8076518 69.42,41.8076518 L52.0730792,41.8076518 L8,41.8076518"
                    begin="cloud2Trans.end - 0.5s"
                    dur="0.5s"
                    fill="freeze"
                  />

                  <animate
                    attributeType="CSS"
                    attributeName="opacity"
                    from="1"
                    to="0"
                    dur="0.5s"
                    begin="mountainTranfrom.end"
                    fill="freeze"
                  />
                </path>
            </g>
        </g>
        <animate
          attributeType="CSS"
          attributeName="opacity"
          from="0"
          to="1"
          dur="1s"
        />
    </g>
</svg>
